<svg width="32" height="32" viewBox="0 0 32 32" fill="none" xmlns="http://www.w3.org/2000/svg">
  <!-- Background -->
  <rect width="32" height="32" rx="7" fill="url(#gradient)"/>
  
  <!-- Gradient -->
  <defs>
    <linearGradient id="gradient" x1="0%" y1="0%" x2="100%" y2="100%">
      <stop offset="0%" style="stop-color:#1e40af;stop-opacity:1" />
      <stop offset="100%" style="stop-color:#3b82f6;stop-opacity:1" />
    </linearGradient>
  </defs>
  
  <!-- Road/path connecting car to cloud (curved upward) -->
  <path d="M 6 24 Q 12 20, 18 14 T 26 9" stroke="white" stroke-width="1.2" opacity="0.2" stroke-dasharray="2,2" fill="none"/>
  
  <!-- Minimalist car silhouette (bottom left) -->
  <path d="M5 20 L7 18 L10 18 L11.5 20 Z" fill="white" opacity="0.95"/>
  <rect x="4.5" y="20" width="8" height="3" rx="0.8" fill="white" opacity="0.95"/>
  <circle cx="6.5" cy="23.5" r="0.9" fill="white"/>
  <circle cx="10.5" cy="23.5" r="0.9" fill="white"/>
  
  <!-- Cloud (top right, larger and more prominent) -->
  <path d="M19 10.5 C19 9.5 20 8.5 21.5 8.5 C23 8.5 24 9.5 24 10.5 C24 10.5 25.5 10.5 25.5 12 C25.5 13 24.5 13.5 23 13.5 L19.5 13.5 C18.5 13.5 18 13 18 12 C18 11 18.5 10.5 19 10.5 Z" fill="white" opacity="0.9"/>
  
  <!-- Checkmark in cloud (more visible) -->
  <path d="M19.5 11.5 L21 13 L24 10" stroke="#1e40af" stroke-width="1" stroke-linecap="round" stroke-linejoin="round"/>
</svg>

